<?xml version="1.0" encoding="utf-8"?>
<!-- Generator: Adobe Illustrator 19.1.0, SVG Export Plug-In . SVG Version: 6.00 Build 0)  -->
<svg version="1.1" id="Layer_1" xmlns="http://www.w3.org/2000/svg" xmlns:xlink="http://www.w3.org/1999/xlink" x="0px" y="0px"
	 viewBox="0 0 144 144" enable-background="new 0 0 144 144" xml:space="preserve">
<path fill="none" d="M119.9,83.8c-0.2,0.5-0.3,0.9-0.5,1.4C119.6,84.8,119.7,84.3,119.9,83.8z"/>
<path fill="none" d="M120.4,82.3c-0.2,0.5-0.3,1-0.5,1.5C120.1,83.3,120.2,82.8,120.4,82.3z"/>
<path fill="none" d="M119.4,85.3c-0.2,0.4-0.4,0.9-0.5,1.3C119,86.2,119.2,85.7,119.4,85.3z"/>
<path fill="none" d="M116.3,91.2c-0.2,0.3-0.4,0.6-0.6,0.9C115.9,91.8,116.1,91.5,116.3,91.2z"/>
<path fill="none" d="M20.2,50.1c-0.3,0-0.5,0-0.8,0C19.7,50.1,20,50.1,20.2,50.1z"/>
<path fill="none" d="M118.8,86.7c-0.4,0.8-0.7,1.6-1.1,2.3C118,88.3,118.4,87.5,118.8,86.7z"/>
<path fill="none" d="M117.6,89.1c-0.4,0.7-0.8,1.4-1.2,2C116.8,90.5,117.2,89.8,117.6,89.1z"/>
<path fill="none" d="M25.2,50c8.4-0.5,15.4-1.7,21.4-3.4c-4.4,1.3-9.4,2.3-15.1,2.9C29.5,49.7,27.4,49.8,25.2,50z"/>
<path fill="none" d="M122.2,75.3c-0.3,1.3-0.5,2.5-0.8,3.6C121.7,77.7,122,76.5,122.2,75.3z"/>
<path fill="none" d="M143.2,62c0-0.1,0-0.2,0-0.3C143.2,61.8,143.2,61.9,143.2,62z"/>
<path fill="none" d="M143.8,67.4c0-0.2,0-0.3,0-0.5C143.8,67,143.8,67.2,143.8,67.4z"/>
<path fill="none" d="M143.6,64.6c0-0.1,0-0.3-0.1-0.4C143.5,64.4,143.6,64.5,143.6,64.6z"/>
<path fill="none" d="M121.4,79c-0.3,1.1-0.6,2.2-0.9,3.2C120.8,81.2,121.1,80.1,121.4,79z"/>
<path fill="none" d="M108.5,97.4c-0.6,0.2-1.1,0.3-1.7,0.4C107.4,97.7,107.9,97.5,108.5,97.4z"/>
<path fill="none" d="M104.7,98c-0.3,0-0.6,0-0.9,0C104.1,98,104.4,98,104.7,98z"/>
<path fill="none" d="M115.7,92.1c-0.2,0.3-0.4,0.6-0.7,0.8C115.2,92.7,115.5,92.4,115.7,92.1z"/>
<path fill="none" d="M103.7,98c-0.3,0-0.6,0-0.9,0C103.1,98,103.4,98,103.7,98z"/>
<path fill="none" d="M101.6,97.9c-0.3,0-0.7-0.1-1-0.1C101,97.8,101.3,97.9,101.6,97.9z"/>
<path fill="none" d="M102.7,98c-0.3,0-0.6,0-1-0.1C102.1,98,102.4,98,102.7,98z"/>
<path fill="none" d="M106.7,97.8c-0.6,0.1-1.2,0.2-1.8,0.2C105.5,98,106.1,97.9,106.7,97.8z"/>
<path fill="none" d="M112.7,95.2c-0.5,0.4-1,0.7-1.5,1C111.7,95.9,112.2,95.6,112.7,95.2z"/>
<path fill="none" d="M115,93c-0.2,0.3-0.5,0.5-0.7,0.7C114.5,93.5,114.7,93.3,115,93z"/>
<path fill="none" d="M110.3,96.7c-0.3,0.1-0.5,0.2-0.8,0.4C109.7,96.9,110,96.8,110.3,96.7z"/>
<path fill="none" d="M109.4,97c-0.3,0.1-0.6,0.2-0.8,0.3C108.9,97.2,109.1,97.1,109.4,97z"/>
<path fill="none" d="M111.1,96.2c-0.3,0.1-0.5,0.3-0.8,0.4C110.6,96.5,110.8,96.4,111.1,96.2z"/>
<path fill="none" d="M115.7,51.8c0.2,0.3,0.4,0.6,0.6,0.9C116.1,52.4,115.9,52.1,115.7,51.8z"/>
<path fill="none" d="M114.3,50.2c0.2,0.2,0.5,0.5,0.7,0.7C114.7,50.7,114.5,50.4,114.3,50.2z"/>
<path fill="none" d="M111.2,47.7c0.5,0.3,1,0.6,1.5,1C112.2,48.4,111.7,48,111.2,47.7z"/>
<path fill="none" d="M110.3,47.3c0.3,0.1,0.5,0.3,0.8,0.4C110.8,47.5,110.6,47.4,110.3,47.3z"/>
<path fill="none" d="M116.4,52.8c0.4,0.6,0.8,1.3,1.2,2C117.2,54.1,116.8,53.4,116.4,52.8z"/>
<path fill="none" d="M109.5,46.9c0.3,0.1,0.5,0.2,0.8,0.4C110,47.1,109.7,47,109.5,46.9z"/>
<path fill="none" d="M100.6,97.8c-0.3,0-0.7-0.1-1-0.2C100,97.7,100.3,97.7,100.6,97.8z"/>
<path fill="none" d="M115,51c0.2,0.3,0.4,0.5,0.7,0.8C115.5,51.5,115.2,51.2,115,51z"/>
<path fill="none" d="M102.8,45.9c0.3,0,0.6,0,0.9,0C103.4,45.9,103.1,45.9,102.8,45.9z"/>
<path fill="none" d="M142.8,59.4C142.8,59.4,142.8,59.4,142.8,59.4C142.8,59.4,142.8,59.4,142.8,59.4z"/>
<path fill="none" d="M104.8,45.9c0.6,0,1.2,0.1,1.8,0.2C106.1,46,105.5,46,104.8,45.9z"/>
<path fill="none" d="M108.6,46.6c0.3,0.1,0.6,0.2,0.8,0.3C109.1,46.8,108.9,46.7,108.6,46.6z"/>
<path fill="none" d="M106.8,46.1c0.6,0.1,1.2,0.2,1.7,0.4C107.9,46.4,107.4,46.2,106.8,46.1z"/>
<path fill="none" d="M103.8,45.9c0.3,0,0.6,0,0.9,0C104.4,45.9,104.1,45.9,103.8,45.9z"/>
<path fill="none" d="M117.7,54.9c0.4,0.7,0.8,1.5,1.1,2.3C118.4,56.4,118,55.6,117.7,54.9z"/>
<path fill="none" d="M99.5,46.3c-0.3,0.1-0.7,0.1-1,0.2l0,0C98.8,46.4,99.1,46.4,99.5,46.3z"/>
<path fill="none" d="M99.6,46.3c0.3-0.1,0.7-0.1,1-0.2C100.3,46.2,100,46.2,99.6,46.3z"/>
<path fill="none" d="M24.5,50c-0.4,0-0.7,0-1.1,0.1C23.8,50,24.1,50,24.5,50z"/>
<path fill="none" d="M22.4,50.1c-0.3,0-0.7,0-1,0C21.8,50.1,22.1,50.1,22.4,50.1z"/>
<path fill="none" d="M114.2,50.1c-0.5-0.5-0.9-0.9-1.4-1.3c0.2,0.2,0.5,0.4,0.7,0.6C113.8,49.6,114,49.9,114.2,50.1z"/>
<path fill="none" d="M100.7,46.1c0.3,0,0.7-0.1,1-0.1C101.3,46,101,46.1,100.7,46.1z"/>
<path fill="none" d="M119.4,58.7c0.2,0.5,0.3,0.9,0.5,1.4C119.7,59.6,119.6,59.1,119.4,58.7z"/>
<path fill="none" d="M121.4,65.1c0.3,1.1,0.6,2.3,0.8,3.6C122,67.4,121.7,66.2,121.4,65.1z"/>
<path fill="none" d="M118.8,57.3c0.2,0.4,0.4,0.9,0.5,1.3C119.2,58.2,119,57.8,118.8,57.3z"/>
<path fill="none" d="M119.9,60.1c0.2,0.5,0.3,1,0.5,1.5C120.2,61.1,120.1,60.6,119.9,60.1z"/>
<path fill="none" d="M120.4,61.7c0.3,1,0.6,2.1,0.9,3.2C121.1,63.8,120.8,62.7,120.4,61.7z"/>
<path fill="none" d="M46.6,97.4L46.6,97.4c-4.4-1.3-9.4-2.3-15.1-2.9C37.2,95.1,42.1,96.1,46.6,97.4z"/>
<path fill="none" d="M101.8,46c0.3,0,0.6-0.1,1-0.1C102.4,45.9,102.1,46,101.8,46z"/>
<path fill="none" d="M20.2,93.8c-0.2,0-0.5,0-0.7,0C19.7,93.8,19.9,93.8,20.2,93.8z"/>
<path fill="none" d="M112.8,95.1c0.5-0.4,1-0.8,1.4-1.3c-0.2,0.2-0.5,0.5-0.7,0.7C113.3,94.7,113,94.9,112.8,95.1z"/>
<path fill="none" d="M143,83.4c0.1-0.3,0.1-0.6,0.2-0.9C143.1,82.8,143,83.1,143,83.4z"/>
<path fill="none" d="M140.7,91.9C140.7,91.9,140.8,91.8,140.7,91.9C140.8,91.8,140.7,91.9,140.7,91.9z"/>
<path fill="none" d="M141.4,89.9c0-0.1,0-0.2,0.1-0.2C141.4,89.8,141.4,89.8,141.4,89.9z"/>
<path fill="none" d="M22.4,93.8c-0.3,0-0.6,0-0.9,0C21.8,93.8,22.1,93.8,22.4,93.8z"/>
<path fill="none" d="M143.4,81.1c0.1-0.4,0.1-0.9,0.2-1.4C143.5,80.2,143.4,80.6,143.4,81.1z"/>
<path fill="none" d="M143.7,78.6c0.1-0.8,0.2-1.7,0.2-2.6C143.8,76.9,143.7,77.8,143.7,78.6z"/>
<path fill="none" d="M98.4,97.4c0.3,0.1,0.7,0.1,1,0.2C99.1,97.5,98.8,97.5,98.4,97.4L98.4,97.4z"/>
<path fill="none" d="M142,87.8c0-0.1,0.1-0.3,0.1-0.4C142.1,87.6,142,87.7,142,87.8z"/>
<path fill="none" d="M24.5,93.9c-0.4,0-0.7,0-1.1,0C23.8,93.9,24.1,93.9,24.5,93.9z"/>
<path fill="none" d="M26.5,94c-0.4,0-0.8-0.1-1.2-0.1C25.6,94,26.1,94,26.5,94z"/>
<path fill="none" d="M142.5,85.7c0-0.2,0.1-0.4,0.1-0.6C142.6,85.3,142.6,85.5,142.5,85.7z"/>
<path fill="none" d="M31.5,94.5c-1.6-0.2-3.2-0.3-4.9-0.4C28.3,94.2,29.9,94.3,31.5,94.5z"/>
<path fill="none" d="M98.4,97.4c0.3,0.1,0.7,0.1,1,0.2c0.1,0,0.1,0,0.2,0c0.3,0.1,0.7,0.1,1,0.2c0,0,0,0,0,0c0.3,0,0.7,0.1,1,0.1
	c0,0,0.1,0,0.1,0c0.3,0,0.6,0.1,1,0.1c0,0,0.1,0,0.1,0c0.3,0,0.6,0,0.9,0c0,0,0,0,0.1,0c0.3,0,0.6,0,0.9,0c0,0,0.1,0,0.1,0
	c0.6,0,1.2-0.1,1.8-0.2c0,0,0.1,0,0.1,0c0.6-0.1,1.2-0.2,1.7-0.4c0,0,0.1,0,0.1,0c0.3-0.1,0.6-0.2,0.8-0.3c0,0,0,0,0.1,0
	c0.3-0.1,0.5-0.2,0.8-0.4c0,0,0,0,0,0c0.3-0.1,0.5-0.3,0.8-0.4c0,0,0.1,0,0.1,0c0.5-0.3,1-0.6,1.5-1c0,0,0.1,0,0.1-0.1
	c0.2-0.2,0.5-0.4,0.7-0.6C107.9,95.1,102.9,96.1,98.4,97.4z"/>
<path fill="none" d="M31.5,49.4c5.7-0.6,10.6-1.6,15.1-2.9c0,0,0,0,0,0C40.6,45.3,35.5,45.8,31.5,49.4z"/>
<path fill="none" d="M113.5,49.4c-0.2-0.2-0.5-0.4-0.7-0.6c0,0-0.1,0-0.1-0.1c-0.5-0.4-1-0.7-1.5-1c0,0-0.1,0-0.1,0
	c-0.3-0.1-0.5-0.3-0.8-0.4c0,0,0,0,0,0c-0.3-0.1-0.5-0.2-0.8-0.4c0,0,0,0-0.1,0c-0.3-0.1-0.6-0.2-0.8-0.3c0,0-0.1,0-0.1,0
	c-0.6-0.2-1.1-0.3-1.7-0.4c0,0-0.1,0-0.1,0c-0.6-0.1-1.2-0.2-1.8-0.2c0,0-0.1,0-0.1,0c-0.3,0-0.6,0-0.9,0c0,0,0,0-0.1,0
	c-0.3,0-0.6,0-0.9,0c0,0-0.1,0-0.1,0c-0.3,0-0.6,0-1,0.1c0,0-0.1,0-0.1,0c-0.3,0-0.6,0.1-1,0.1c0,0,0,0,0,0c-0.3,0-0.7,0.1-1,0.2
	c-0.1,0-0.1,0-0.2,0c-0.3,0.1-0.7,0.1-1,0.2C102.9,47.8,107.9,48.8,113.5,49.4z"/>
<path fill="none" d="M31.5,94.5c4,3.6,9.1,4.2,15.1,2.9C42.1,96.1,37.2,95.1,31.5,94.5C31.5,94.5,31.5,94.5,31.5,94.5z"/>
<path fill="#0A3542" d="M143.9,76.1c-0.1,0.9-0.1,1.7-0.2,2.6c0,0.4-0.1,0.7-0.1,1.1c-0.1,0.5-0.1,0.9-0.2,1.4
	c-0.1,0.5-0.1,0.9-0.2,1.4c-0.1,0.3-0.1,0.6-0.2,0.9c-0.1,0.5-0.2,1.1-0.3,1.6c0,0.2-0.1,0.4-0.1,0.6c-0.1,0.6-0.3,1.2-0.4,1.7
	c0,0.1-0.1,0.3-0.1,0.4c-0.2,0.6-0.3,1.2-0.5,1.8c0,0.1,0,0.2-0.1,0.2c-0.2,0.6-0.4,1.3-0.6,1.9c0,0,0,0.1,0,0.1
	c-0.2,0.7-0.5,1.3-0.7,1.9c0,0,0,0,0,0c35.3,0.1,102,0.2,102,0.2V73h-97.9v3H143.9z"/>
<path d="M72.5,87.3L72.5,87.3c0,0,0.1,0,0.1,0.1C72.6,87.4,72.5,87.3,72.5,87.3z"/>
<path fill="#0A3542" d="M142.8,59.4c0.2,0.8,0.3,1.5,0.4,2.3c0,0.1,0,0.2,0,0.3c0.1,0.7,0.2,1.5,0.3,2.2c0,0.1,0,0.3,0.1,0.4
	c0.1,0.7,0.2,1.5,0.2,2.2c0,0.2,0,0.3,0,0.5c0.1,0.9,0.1,1.9,0.2,2.8h0.1v0.7H242v-21c0,0-66.7,0.1-102,0.2
	C141.2,52.9,142.1,56,142.8,59.4C142.8,59.4,142.8,59.4,142.8,59.4z"/>
<path d="M72.5,56.6L72.5,56.6c0,0,0.1,0,0.1-0.1C72.6,56.6,72.5,56.6,72.5,56.6z"/>
<path fill="#355D65" d="M46.6,46.5c-6,1.7-13,3-21.4,3.4c-0.2,0-0.4,0-0.7,0c-0.4,0-0.7,0-1.1,0.1c-0.3,0-0.6,0-0.9,0
	c-0.3,0-0.7,0-1,0c-0.4,0-0.8,0-1.2,0c-0.3,0-0.5,0-0.8,0c-0.7,0-1.4,0-2.1,0c-2.9,0-6.4,0-10.4,0C-27.8,50-97,49.9-97,49.9v21H17.3
	c21.5,0,43.8-5.8,59.1-12.6C66.4,53.8,53.8,48,46.6,46.5C46.6,46.5,46.6,46.5,46.6,46.5z"/>
<path fill="#355D65" d="M19.4,93.8c0.2,0,0.5,0,0.7,0c0.4,0,0.9,0,1.3,0c0.3,0,0.6,0,0.9,0c0.3,0,0.7,0,1,0c0.4,0,0.7,0,1.1,0
	c0.3,0,0.5,0,0.8,0c0.4,0,0.8,0,1.2,0.1c0,0,0.1,0,0.1,0c1.7,0.1,3.3,0.3,4.9,0.4c0,0,0,0,0,0c0,0,0,0,0,0
	c5.7,0.6,10.6,1.6,15.1,2.9c7.3-1.5,19.2-7.3,29.3-11.8C60.5,78.9,38.8,73,17.3,73H-97v21c0,0,69.1-0.1,103.8-0.2c4,0,7.5,0,10.5,0
	C18,93.8,18.7,93.8,19.4,93.8z"/>
<path fill="#355D65" d="M122.8,72.1c-0.2,1.1-0.4,2.1-0.6,3.1c0,0,0,0.1,0,0.1c-0.3,1.3-0.5,2.5-0.8,3.6c0,0,0,0.1,0,0.1
	c-0.3,1.1-0.6,2.2-0.9,3.2c0,0,0,0.1,0,0.1c-0.2,0.5-0.3,1-0.5,1.5c0,0,0,0,0,0c-0.2,0.5-0.3,0.9-0.5,1.4c0,0,0,0,0,0.1
	c-0.2,0.4-0.4,0.9-0.5,1.3c0,0,0,0.1,0,0.1c-0.4,0.8-0.7,1.6-1.1,2.3c0,0,0,0.1-0.1,0.1c-0.4,0.7-0.8,1.4-1.2,2c0,0,0,0.1-0.1,0.1
	c-0.2,0.3-0.4,0.6-0.6,0.9c0,0,0,0,0,0c-0.2,0.3-0.4,0.6-0.7,0.8c0,0,0,0,0,0.1c-0.2,0.3-0.5,0.5-0.7,0.7c0,0,0,0-0.1,0.1
	c-0.5,0.5-0.9,0.9-1.4,1.3c0,0-0.1,0-0.1,0.1c-0.5,0.4-1,0.7-1.5,1c0,0-0.1,0-0.1,0c-0.3,0.1-0.5,0.3-0.8,0.4c0,0,0,0,0,0
	c-0.3,0.1-0.5,0.2-0.8,0.4c0,0,0,0-0.1,0c-0.3,0.1-0.6,0.2-0.8,0.3c0,0-0.1,0-0.1,0c-0.6,0.2-1.1,0.3-1.7,0.4c0,0-0.1,0-0.1,0
	c-0.6,0.1-1.2,0.2-1.8,0.2c0,0-0.1,0-0.1,0c-0.3,0-0.6,0-0.9,0c0,0,0,0-0.1,0c-0.3,0-0.6,0-0.9,0c0,0-0.1,0-0.1,0
	c-0.3,0-0.6,0-1-0.1c0,0-0.1,0-0.1,0c-0.3,0-0.7-0.1-1-0.1c0,0,0,0,0,0c-0.3,0-0.7-0.1-1-0.2c-0.1,0-0.1,0-0.2,0
	c-0.3-0.1-0.7-0.1-1-0.2c-11,3.1-18.8,7.8-25.9,12c8.9,5.2,16.9,9.7,28.9,9.7c17.1,0,31.8-8.4,38.7-25.3c0.3-0.6,0.5-1.3,0.7-1.9
	c0,0,0-0.1,0-0.1c0.2-0.6,0.4-1.3,0.6-1.9c0-0.1,0-0.2,0.1-0.2c0.2-0.6,0.4-1.2,0.5-1.8c0-0.1,0.1-0.3,0.1-0.4
	c0.1-0.6,0.3-1.2,0.4-1.7c0-0.2,0.1-0.4,0.1-0.6c0.1-0.5,0.2-1.1,0.3-1.6c0.1-0.3,0.1-0.6,0.2-0.9c0.1-0.5,0.2-0.9,0.2-1.4
	c0.1-0.4,0.1-0.9,0.2-1.4c0-0.4,0.1-0.7,0.1-1.1c0.1-0.8,0.2-1.7,0.2-2.6h0.2v-3v-2.2v-0.7H144c0-1-0.1-1.9-0.2-2.8
	c0-0.2,0-0.3,0-0.5c-0.1-0.8-0.1-1.5-0.2-2.2c0-0.1,0-0.3-0.1-0.4c-0.1-0.8-0.2-1.5-0.3-2.2c0-0.1,0-0.2,0-0.3
	c-0.1-0.8-0.3-1.6-0.4-2.3c0,0,0-0.1,0-0.1c-0.7-3.3-1.6-6.4-2.7-9.2l0,0c-6.8-16.9-21.6-25.3-38.7-25.3c-12,0-19.9,4.5-28.9,9.7
	l0,0c7.2,4.2,15,8.8,25.9,12c0.3-0.1,0.7-0.1,1-0.2c0.1,0,0.1,0,0.2,0c0.3-0.1,0.7-0.1,1-0.2c0,0,0,0,0,0c0.3,0,0.7-0.1,1-0.1
	c0,0,0.1,0,0.1,0c0.3,0,0.6-0.1,1-0.1c0,0,0.1,0,0.1,0c0.3,0,0.6,0,0.9,0c0,0,0,0,0.1,0c0.3,0,0.6,0,0.9,0c0,0,0.1,0,0.1,0
	c0.6,0,1.2,0.1,1.8,0.2c0,0,0.1,0,0.1,0c0.6,0.1,1.2,0.2,1.7,0.4c0,0,0.1,0,0.1,0c0.3,0.1,0.6,0.2,0.8,0.3c0,0,0,0,0.1,0
	c0.3,0.1,0.5,0.2,0.8,0.4c0,0,0,0,0,0c0.3,0.1,0.5,0.3,0.8,0.4c0,0,0.1,0,0.1,0c0.5,0.3,1,0.6,1.5,1c0,0,0.1,0,0.1,0.1
	c0.5,0.4,1,0.8,1.4,1.3c0,0,0,0,0.1,0.1c0.2,0.2,0.5,0.5,0.7,0.7c0,0,0,0,0,0.1c0.2,0.3,0.4,0.5,0.7,0.8c0,0,0,0,0,0
	c0.2,0.3,0.4,0.6,0.6,0.9c0,0,0,0.1,0.1,0.1c0.4,0.6,0.8,1.3,1.2,2c0,0,0,0.1,0.1,0.1c0.4,0.7,0.8,1.5,1.1,2.3c0,0,0,0.1,0,0.1
	c0.2,0.4,0.4,0.9,0.5,1.3c0,0,0,0,0,0c0.2,0.5,0.3,0.9,0.5,1.4c0,0,0,0,0,0c0.2,0.5,0.3,1,0.5,1.5c0,0,0,0.1,0,0.1
	c0.3,1,0.6,2.1,0.9,3.2c0,0,0,0.1,0,0.1c0.3,1.1,0.6,2.3,0.8,3.6c0,0,0,0.1,0,0.1c0.2,1,0.4,2,0.6,3.1V72.1z"/>
<path fill="#6D2812" d="M104.8,98c0,0-0.1,0-0.1,0C104.8,98,104.8,98,104.8,98z"/>
<path fill="#6D2812" d="M109.5,97C109.5,97,109.4,97,109.5,97C109.4,97,109.5,97,109.5,97z"/>
<path fill="#6D2812" d="M101.8,97.9c0,0-0.1,0-0.1,0C101.7,97.9,101.7,97.9,101.8,97.9z"/>
<path fill="#6D2812" d="M108.6,97.3C108.6,97.3,108.5,97.4,108.6,97.3C108.5,97.4,108.6,97.3,108.6,97.3z"/>
<path fill="#6D2812" d="M106.8,97.8c0,0-0.1,0-0.1,0C106.7,97.8,106.7,97.8,106.8,97.8z"/>
<path fill="#6D2812" d="M102.8,98C102.8,98,102.8,98,102.8,98C102.8,98,102.8,98,102.8,98z"/>
<path fill="#6D2812" d="M103.8,98C103.8,98,103.8,98,103.8,98C103.8,98,103.8,98,103.8,98z"/>
<path fill="#6D2812" d="M99.6,97.6c-0.1,0-0.1,0-0.2,0C99.5,97.6,99.6,97.6,99.6,97.6z"/>
<path fill="#6D2812" d="M110.3,96.7C110.3,96.7,110.3,96.7,110.3,96.7C110.3,96.7,110.3,96.7,110.3,96.7z"/>
<path fill="#6D2812" d="M100.6,97.8C100.6,97.8,100.6,97.8,100.6,97.8C100.6,97.8,100.6,97.8,100.6,97.8z"/>
<path fill="#6D2812" d="M112.8,95.1C112.8,95.1,112.7,95.1,112.8,95.1C112.7,95.1,112.8,95.1,112.8,95.1z"/>
<path fill="#6D2812" d="M111.2,96.2C111.2,96.2,111.1,96.2,111.2,96.2C111.1,96.2,111.2,96.2,111.2,96.2z"/>
<polygon fill="#6D2812" points="46.6,46.5 46.6,46.5 46.6,46.5 "/>
<path fill="#6D2812" d="M104.7,45.9c0,0,0.1,0,0.1,0C104.8,45.9,104.8,45.9,104.7,45.9z"/>
<path fill="#6D2812" d="M101.6,46c0,0,0.1,0,0.1,0C101.7,46,101.7,46,101.6,46z"/>
<path fill="#6D2812" d="M106.6,46.1c0,0,0.1,0,0.1,0C106.7,46.1,106.7,46.1,106.6,46.1z"/>
<path fill="#6D2812" d="M103.7,45.9C103.8,45.9,103.8,45.9,103.7,45.9C103.8,45.9,103.8,45.9,103.7,45.9z"/>
<path fill="#6D2812" d="M102.7,45.9c0,0,0.1,0,0.1,0C102.8,45.9,102.8,45.9,102.7,45.9z"/>
<path fill="#6D2812" d="M108.5,46.6C108.5,46.6,108.6,46.6,108.5,46.6C108.6,46.6,108.5,46.6,108.5,46.6z"/>
<path fill="#6D2812" d="M100.6,46.1C100.6,46.1,100.6,46.1,100.6,46.1C100.6,46.1,100.6,46.1,100.6,46.1z"/>
<path fill="#6D2812" d="M109.4,46.9C109.4,46.9,109.5,46.9,109.4,46.9C109.5,46.9,109.4,46.9,109.4,46.9z"/>
<path fill="#6D2812" d="M112.7,48.8C112.7,48.8,112.8,48.8,112.7,48.8C112.8,48.8,112.7,48.8,112.7,48.8z"/>
<path fill="#6D2812" d="M111.1,47.7C111.1,47.7,111.2,47.7,111.1,47.7C111.2,47.7,111.1,47.7,111.1,47.7z"/>
<path fill="#6D2812" d="M110.3,47.3C110.3,47.3,110.3,47.3,110.3,47.3C110.3,47.3,110.3,47.3,110.3,47.3z"/>
<path fill="#6D2812" d="M99.5,46.3c0.1,0,0.1,0,0.2,0C99.6,46.3,99.5,46.3,99.5,46.3z"/>
<polygon fill="#6D2812" points="31.5,94.5 31.5,94.5 31.5,94.5 "/>
<path fill="#6D2812" d="M26.6,94.1c0,0-0.1,0-0.1,0C26.5,94,26.5,94.1,26.6,94.1z"/>
<path fill="#6D2812" d="M25.2,94c-0.2,0-0.5,0-0.8,0C24.7,93.9,25,94,25.2,94z"/>
<polygon fill="#6D2812" points="31.5,94.5 31.5,94.5 31.5,94.5 "/>
<path fill="#6D2812" d="M23.4,93.9c-0.3,0-0.7,0-1,0C22.7,93.9,23.1,93.9,23.4,93.9z"/>
<path fill="#355D65" d="M6.8,93.8c4,0,7.5,0,10.5,0C14.4,93.8,10.8,93.8,6.8,93.8z"/>
<path fill="#6D2812" d="M19.4,93.8c-0.7,0-1.4,0-2.1,0C18,93.8,18.7,93.8,19.4,93.8z"/>
<path fill="#6D2812" d="M21.5,93.8c-0.4,0-0.9,0-1.3,0C20.6,93.8,21,93.8,21.5,93.8z"/>
<path fill="#6D2812" d="M143.1,82.5c0.1-0.5,0.2-0.9,0.2-1.4C143.3,81.6,143.2,82,143.1,82.5z"/>
<path fill="#6D2812" d="M143.5,79.7c0-0.4,0.1-0.7,0.1-1.1C143.6,79,143.6,79.4,143.5,79.7z"/>
<path fill="#6D2812" d="M142.6,85c0.1-0.5,0.2-1.1,0.3-1.6C142.9,84,142.8,84.5,142.6,85z"/>
<path fill="#6D2812" d="M140,93.8c0.3-0.6,0.5-1.3,0.7-1.9C140.5,92.5,140.3,93.2,140,93.8z"/>
<path fill="#6D2812" d="M140.8,91.8c0.2-0.6,0.4-1.3,0.6-1.9C141.2,90.5,141,91.2,140.8,91.8z"/>
<path fill="#6D2812" d="M141.5,89.7c0.2-0.6,0.4-1.2,0.5-1.8C141.8,88.5,141.6,89.1,141.5,89.7z"/>
<path fill="#6D2812" d="M142.1,87.4c0.1-0.6,0.3-1.2,0.4-1.7C142.4,86.3,142.2,86.9,142.1,87.4z"/>
<path fill="#6D2812" d="M115.7,92.1C115.7,92.1,115.7,92.1,115.7,92.1C115.7,92.1,115.7,92.1,115.7,92.1z"/>
<path fill="#6D2812" d="M117.7,89c0,0,0,0.1-0.1,0.1C117.6,89.1,117.6,89.1,117.7,89z"/>
<path fill="#6D2812" d="M116.4,91.1C116.4,91.2,116.3,91.2,116.4,91.1C116.3,91.2,116.4,91.2,116.4,91.1z"/>
<path fill="#6D2812" d="M115,93C115,93,115,93,115,93C115,93,115,93,115,93z"/>
<path fill="#6D2812" d="M114.3,93.8C114.3,93.8,114.2,93.8,114.3,93.8C114.2,93.8,114.3,93.8,114.3,93.8z"/>
<path fill="#6D2812" d="M121.4,78.9c0,0,0,0.1,0,0.1C121.4,79,121.4,78.9,121.4,78.9z"/>
<path fill="#6D2812" d="M119.4,85.2C119.4,85.2,119.4,85.3,119.4,85.2C119.4,85.3,119.4,85.2,119.4,85.2z"/>
<path fill="#6D2812" d="M120.4,82.2c0,0,0,0.1,0,0.1C120.4,82.3,120.4,82.3,120.4,82.2z"/>
<path fill="#6D2812" d="M118.8,86.6c0,0,0,0.1,0,0.1C118.8,86.6,118.8,86.6,118.8,86.6z"/>
<path fill="#6D2812" d="M122.2,75.1c0,0,0,0.1,0,0.1C122.2,75.2,122.2,75.2,122.2,75.1z"/>
<path fill="#6D2812" d="M119.9,83.8C119.9,83.8,119.9,83.8,119.9,83.8C119.9,83.8,119.9,83.8,119.9,83.8z"/>
<path fill="#0A3542" d="M72.5,87.3c0,0,0.1,0,0.1,0.1C72.6,87.4,72.5,87.3,72.5,87.3c-10,4.4-18.7,8.6-25.9,10.1
	c0.4,0.1,0.4,0.1,0,0c-6,1.3-11,0.7-15.1-2.9c0,0,0,0,0,0c-1.6-0.2-3.2-0.3-4.9-0.4c0,0-0.1,0-0.1,0c-0.4,0-0.8-0.1-1.2-0.1
	c-0.2,0-0.5,0-0.8,0c-0.4,0-0.7,0-1.1,0c-0.3,0-0.7,0-1,0c-0.3,0-0.6,0-0.9,0c-0.4,0-0.9,0-1.3,0c-0.2,0-0.5,0-0.7,0
	c-0.7,0-1.4,0-2.1,0c-2.9,0-6.5,0-10.5,0c-0.6,0-1.2,0-1.8,0c6.8,16.9,21.6,25.3,38.6,25.3c12,0,19.9-4.5,28.9-9.7
	c7.2-4.2,15-8.9,25.9-12c4.4-1.3,9.4-2.3,15.1-2.9c0.2-0.2,0.5-0.4,0.7-0.7c0,0,0,0,0.1-0.1c0.2-0.2,0.5-0.5,0.7-0.7c0,0,0,0,0-0.1
	c0.2-0.3,0.4-0.5,0.7-0.8c0,0,0,0,0,0c0.2-0.3,0.4-0.6,0.6-0.9c0,0,0-0.1,0.1-0.1c0.4-0.6,0.8-1.3,1.2-2c0,0,0-0.1,0.1-0.1
	c0.4-0.7,0.8-1.5,1.1-2.3c0,0,0-0.1,0-0.1c0.2-0.4,0.4-0.9,0.5-1.3c0,0,0,0,0-0.1c0.2-0.4,0.3-0.9,0.5-1.4c0,0,0,0,0,0
	c0.2-0.5,0.3-1,0.5-1.5c0,0,0-0.1,0-0.1c0.3-1,0.6-2.1,0.9-3.2c0,0,0-0.1,0-0.1c0.3-1.1,0.6-2.3,0.8-3.6c0,0,0-0.1,0-0.1
	c0.1-0.6,0.3-1.3,0.4-2C103.3,74.2,86.6,81.1,72.5,87.3z"/>
<path fill="#6D2812" d="M115,50.9C115,50.9,115,50.9,115,50.9C115,50.9,115,50.9,115,50.9z"/>
<path fill="#6D2812" d="M114.2,50.1C114.2,50.1,114.3,50.1,114.2,50.1C114.3,50.1,114.2,50.1,114.2,50.1z"/>
<path fill="#6D2812" d="M118.8,57.2C118.8,57.3,118.8,57.3,118.8,57.2C118.8,57.3,118.8,57.3,118.8,57.2z"/>
<path fill="#6D2812" d="M121.4,64.9c0,0,0,0.1,0,0.1C121.4,65,121.4,65,121.4,64.9z"/>
<path fill="#6D2812" d="M116.3,52.7C116.3,52.7,116.4,52.8,116.3,52.7C116.4,52.8,116.3,52.7,116.3,52.7z"/>
<path fill="#6D2812" d="M117.6,54.8c0,0,0,0.1,0.1,0.1C117.6,54.9,117.6,54.8,117.6,54.8z"/>
<path fill="#6D2812" d="M119.4,58.6C119.4,58.7,119.4,58.7,119.4,58.6C119.4,58.7,119.4,58.7,119.4,58.6z"/>
<path fill="#6D2812" d="M115.7,51.8C115.7,51.8,115.7,51.8,115.7,51.8C115.7,51.8,115.7,51.8,115.7,51.8z"/>
<path fill="#6D2812" d="M122.2,68.8c0,0,0-0.1,0-0.1C122.2,68.7,122.2,68.7,122.2,68.8z"/>
<path fill="#6D2812" d="M120.4,61.6c0,0,0,0.1,0,0.1C120.4,61.7,120.4,61.6,120.4,61.6z"/>
<path fill="#6D2812" d="M119.9,60.1C119.9,60.1,119.9,60.1,119.9,60.1C119.9,60.1,119.9,60.1,119.9,60.1z"/>
<path fill="#6D2812" d="M19.4,50.1c-0.7,0-1.4,0-2.1,0C18,50.2,18.7,50.2,19.4,50.1z"/>
<path fill="#6D2812" d="M21.4,50.1c-0.4,0-0.8,0-1.2,0C20.6,50.1,21,50.1,21.4,50.1z"/>
<path fill="#6D2812" d="M23.4,50c-0.3,0-0.6,0-0.9,0C22.8,50.1,23.1,50.1,23.4,50z"/>
<polygon fill="#6D2812" points="46.6,46.5 46.6,46.5 46.6,46.5 "/>
<path fill="#6D2812" d="M25.2,50c-0.2,0-0.4,0-0.7,0C24.7,50,25,50,25.2,50z"/>
<path fill="#355D65" d="M7,50.1c3.9,0,7.5,0,10.4,0C14.4,50.1,10.9,50.1,7,50.1z"/>
<path fill="#6D2812" d="M144,70.2c0-1-0.1-1.9-0.2-2.8C143.9,68.3,144,69.2,144,70.2z"/>
<path fill="#6D2812" d="M143.8,66.9c-0.1-0.8-0.1-1.5-0.2-2.2C143.7,65.4,143.7,66.1,143.8,66.9z"/>
<path fill="#6D2812" d="M142.7,59.3c-0.7-3.3-1.6-6.4-2.7-9.2l0,0C141.2,52.9,142.1,56,142.7,59.3z"/>
<path fill="#6D2812" d="M143.5,64.2c-0.1-0.8-0.2-1.5-0.3-2.2C143.3,62.7,143.4,63.5,143.5,64.2z"/>
<path fill="#6D2812" d="M143.2,61.7c-0.1-0.8-0.3-1.6-0.4-2.3C142.9,60.2,143.1,60.9,143.2,61.7z"/>
<path fill="#0A3542" d="M122.6,70.7c-0.1-0.7-0.3-1.3-0.4-2c0,0,0-0.1,0-0.1c-0.3-1.3-0.5-2.5-0.8-3.6c0,0,0-0.1,0-0.1
	c-0.3-1.1-0.6-2.2-0.9-3.2c0,0,0-0.1,0-0.1c-0.2-0.5-0.3-1-0.5-1.5c0,0,0,0,0,0c-0.2-0.5-0.3-0.9-0.5-1.4c0,0,0,0,0,0
	c-0.2-0.4-0.4-0.9-0.5-1.3c0,0,0-0.1,0-0.1c-0.4-0.8-0.7-1.6-1.1-2.3c0,0,0-0.1-0.1-0.1c-0.4-0.7-0.8-1.4-1.2-2c0,0,0-0.1-0.1-0.1
	c-0.2-0.3-0.4-0.6-0.6-0.9c0,0,0,0,0,0c-0.2-0.3-0.4-0.6-0.7-0.8c0,0,0,0,0-0.1c-0.2-0.3-0.5-0.5-0.7-0.7c0,0,0,0-0.1-0.1
	c-0.2-0.2-0.5-0.5-0.7-0.7c-5.7-0.6-10.6-1.6-15.1-2.9c-11-3.1-18.8-7.8-25.9-12c-8.9-5.2-16.9-9.7-28.9-9.7
	c-17.1,0-31.8,8.4-38.6,25.3c0.7,0,1.3,0,1.9,0c4,0,7.5,0,10.4,0c0.7,0,1.4,0,2.1,0c0.3,0,0.5,0,0.8,0c0.4,0,0.8,0,1.2,0
	c0.3,0,0.7,0,1,0c0.3,0,0.6,0,0.9,0c0.4,0,0.8,0,1.1-0.1c0.2,0,0.4,0,0.7,0c2.2-0.1,4.3-0.3,6.3-0.5c4-3.6,9.1-4.2,15.1-2.9
	c0,0,0,0,0,0c0,0,0,0,0,0c7.3,1.5,15.9,5.7,25.9,10.1c0,0,0.1,0,0.1-0.1c0,0-0.1,0-0.1,0.1C86.6,62.8,103.3,69.7,122.6,70.7z"/>
</svg>
